<?xml version="1.0" encoding="UTF-8" standalone="no"?>
<!DOCTYPE svg PUBLIC "-//W3C//DTD SVG 1.1//EN" "http://www.w3.org/Graphics/SVG/1.1/DTD/svg11.dtd">
<svg xmlns="http://www.w3.org/2000/svg" version="1.1" viewBox="0.00 0.00 1045.00 1045.00">
<g stroke-width="2.00" fill="none" stroke-linecap="butt">
<path stroke="#e1e5db" vector-effect="non-scaling-stroke" d="
  M 940.75 1045.00
  Q 942.67 1044.43 944.52 1043.67
  Q 945.37 1043.31 944.45 1043.36
  Q 944.27 1043.37 944.16 1043.26
  Q 943.80 1042.92 943.96 1042.45
  C 944.31 1041.35 944.52 1040.14 945.00 1039.13
  Q 952.86 1022.79 959.88 1006.02
  Q 960.10 1005.48 960.59 1003.71
  Q 960.73 1003.20 961.11 1002.81
  Q 961.65 1002.23 961.77 1001.51
  Q 961.89 1000.75 962.23 1000.07
  Q 963.07 998.42 963.55 996.73
  Q 963.98 995.22 964.66 993.84
  Q 966.35 990.41 967.12 986.60
  Q 967.15 986.44 967.32 986.42
  Q 967.59 986.38 967.68 986.11
  Q 968.81 982.73 970.28 979.52
  Q 970.61 978.80 970.58 977.99
  Q 970.55 977.17 971.00 976.48
  Q 971.61 975.53 971.97 974.43
  Q 978.18 955.07 979.61 949.85
  Q 984.62 931.60 988.69 912.67
  C 988.86 911.85 988.73 910.70 988.99 909.93
  Q 989.54 908.24 989.58 908.01
  Q 994.67 877.54 996.64 846.74
  Q 997.30 836.52 997.29 827.15
  Q 997.29 813.08 996.78 799.70
  Q 996.57 794.01 995.83 788.51
  Q 995.15 783.47 994.72 777.67
  Q 994.13 769.65 992.75 762.25
  Q 992.26 759.61 992.20 757.41
  Q 992.14 754.91 991.74 752.62
  Q 990.67 746.52 989.47 740.29
  Q 989.36 739.74 989.08 739.26
  Q 988.80 738.76 988.83 738.14
  Q 988.88 737.27 988.72 736.42
  Q 987.34 729.20 986.36 722.26
  Q 986.20 721.16 985.66 720.06
  Q 985.14 719.01 984.94 717.85
  Q 983.97 712.36 982.16 707.36
  C 981.74 706.19 981.87 704.98 981.44 703.79
  Q 980.97 702.50 980.74 701.15
  Q 980.37 699.01 979.91 696.87
  Q 979.71 695.97 979.31 695.19
  Q 978.88 694.35 978.70 693.50
  Q 978.44 692.23 977.97 691.04
  Q 976.86 688.26 976.14 685.44
  Q 975.56 683.15 974.73 680.95
  Q 973.89 678.71 973.55 676.38
  C 973.32 674.80 972.03 673.73 971.85 672.10
  Q 971.76 671.21 971.18 670.52
  Q 970.85 670.12 970.86 669.60
  Q 970.86 668.36 970.14 667.34
  Q 969.83 666.90 969.88 666.35
  Q 969.95 665.73 969.58 665.21
  Q 969.16 664.63 968.92 663.89
  Q 967.48 659.43 965.66 654.68
  Q 944.30 598.93 910.41 550.66
  Q 910.12 550.24 910.09 549.73
  Q 910.03 548.77 909.40 547.96
  Q 906.92 544.77 904.92 541.22
  C 904.37 540.25 903.59 539.49 902.80 538.71
  Q 901.90 537.82 901.24 536.67
  Q 898.79 532.35 895.26 529.27
  Q 894.72 528.80 894.56 528.11
  Q 894.28 526.92 893.40 526.04
  C 892.22 524.86 891.45 523.49 890.59 522.08
  A 0.81 0.80 -17.1 0 0 889.85 521.69
  Q 889.48 521.70 889.23 521.48
  Q 888.50 520.84 888.38 520.03
  Q 888.23 519.07 887.35 518.69
  Q 886.88 518.48 886.62 518.03
  Q 885.49 516.06 883.78 514.35
  Q 882.52 513.09 881.63 511.45
  Q 880.04 508.52 877.98 506.79
  Q 874.83 504.15 872.49 500.79
  Q 871.61 499.53 870.23 498.82
  Q 869.78 498.60 869.62 498.14
  Q 869.45 497.62 869.04 497.23
  Q 866.43 494.74 864.17 491.87
  Q 863.32 490.79 862.19 489.87
  Q 860.99 488.89 860.12 487.42
  Q 859.32 486.08 858.13 485.18
  Q 857.06 484.37 856.27 483.31
  Q 855.16 481.81 853.57 481.29
  A 0.07 0.07 0.0 0 1 853.54 481.19
  Q 853.67 481.04 853.64 480.84
  Q 853.60 480.49 853.28 480.21
  Q 847.47 475.07 841.29 469.00
  C 840.86 468.57 840.26 468.39 839.82 467.93
  Q 836.13 464.02 831.77 460.29
  Q 828.69 457.66 825.26 454.49
  Q 821.87 451.36 818.25 448.75
  Q 817.30 448.07 816.57 447.05
  Q 815.90 446.13 814.88 445.46
  Q 810.92 442.88 806.69 439.33
  C 805.59 438.40 804.33 437.92 803.20 436.99
  Q 799.36 433.81 795.21 430.79
  Q 794.03 429.93 792.80 429.19
  Q 791.57 428.45 790.41 427.50
  Q 788.78 426.17 786.93 424.95
  Q 780.52 420.73 774.28 416.61
  Q 771.30 414.64 768.05 412.82
  Q 764.89 411.03 761.80 408.96
  Q 760.24 407.92 758.62 407.22
  Q 756.86 406.46 755.44 405.31
  Q 753.98 404.12 752.20 403.29
  Q 750.39 402.44 748.67 401.45
  Q 744.44 399.01 739.42 396.96
  Q 738.96 396.78 738.70 396.36
  Q 738.56 396.13 738.31 396.09
  Q 737.93 396.03 737.58 395.85
  Q 730.49 392.21 723.39 388.85
  Q 722.23 388.30 720.96 387.88
  Q 719.70 387.45 718.51 386.81
  Q 716.88 385.93 715.04 385.28
  Q 712.80 384.49 710.46 383.35
  Q 703.54 379.97 694.28 376.71
  Q 692.66 376.14 691.06 375.23
  A 0.93 0.92 -37.4 0 0 690.36 375.14
  Q 689.74 375.29 689.62 374.73
  Q 689.51 374.22 688.99 374.17
  Q 687.40 374.04 685.90 373.34
  Q 683.39 372.19 683.02 372.06
  Q 676.38 369.77 669.30 367.58
  Q 669.10 367.52 669.00 367.33
  Q 668.97 367.26 668.93 367.21
  Q 668.77 367.03 668.54 367.01
  Q 665.31 366.74 662.76 365.70
  Q 660.04 364.60 657.27 363.81
  Q 650.53 361.90 643.62 360.06
  Q 642.96 359.88 642.40 359.50
  Q 641.99 359.22 641.49 359.17
  Q 638.94 358.91 636.52 358.12
  Q 634.07 357.32 631.43 356.89
  Q 628.96 356.49 626.78 355.81
  Q 624.48 355.10 622.16 354.61
  Q 601.73 350.28 580.99 347.76
  Q 579.98 347.64 579.03 347.46
  Q 574.71 346.65 570.16 346.46
  C 567.28 346.35 564.56 345.79 561.69 345.70
  Q 558.39 345.60 555.17 345.31
  Q 542.83 344.21 531.01 344.87
  Q 517.97 345.60 504.75 345.30
  Q 500.01 345.19 495.72 345.42
  Q 491.07 345.66 486.74 345.63
  Q 474.91 345.54 463.18 347.23
  Q 454.88 348.43 445.08 349.91
  C 443.35 350.17 441.67 350.08 440.01 350.37
  Q 425.16 352.97 412.50 355.95
  Q 409.99 356.54 408.16 356.92
  Q 406.00 357.37 403.85 357.94
  Q 398.98 359.24 394.28 360.64
  Q 390.33 361.81 385.70 362.96
  Q 381.39 364.03 376.99 365.67
  A 1.45 1.44 -77.7 0 0 376.48 366.00
  Q 375.95 366.54 375.22 366.42
  A 1.74 1.71 37.4 0 0 374.26 366.54
  Q 373.41 366.91 372.60 367.16
  Q 371.82 367.41 370.96 367.85
  Q 369.48 368.63 367.86 369.03
  Q 365.15 369.69 364.68 369.85
  Q 360.07 371.41 355.49 373.04
  Q 354.50 373.40 352.54 374.30
  Q 351.08 374.97 349.55 375.47
  Q 347.26 376.21 345.27 377.09
  Q 341.94 378.57 336.70 380.64
  Q 331.49 382.69 326.59 384.16
  Q 324.59 384.76 320.46 386.91
  C 319.64 387.33 319.56 387.80 318.51 388.04
  Q 318.03 388.14 317.61 388.40
  Q 314.79 390.12 311.56 391.65
  Q 303.81 395.30 294.76 400.00
  Q 293.67 400.56 292.55 400.97
  Q 291.21 401.45 290.38 402.38
  Q 289.28 403.62 287.91 404.34
  Q 282.68 407.11 277.61 410.12
  Q 277.15 410.40 276.58 410.55
  Q 276.28 410.63 276.01 410.80
  Q 266.22 416.67 258.04 421.89
  Q 254.61 424.09 250.79 427.04
  Q 249.35 428.16 247.71 429.07
  Q 246.07 429.98 244.48 431.29
  Q 243.02 432.50 241.44 433.45
  Q 240.04 434.29 238.83 435.30
  Q 238.00 436.00 237.00 436.44
  Q 236.00 436.87 235.20 437.55
  Q 231.05 441.06 226.75 444.33
  Q 226.42 444.59 226.02 444.72
  Q 225.55 444.87 225.15 445.16
  L 221.88 447.60
  Q 221.60 447.81 221.49 448.15
  Q 221.40 448.44 221.13 448.59
  Q 220.68 448.83 220.34 449.20
  Q 219.09 450.55 217.53 451.54
  C 215.99 452.52 215.19 454.10 213.67 455.02
  Q 212.23 455.90 210.98 456.93
  Q 203.70 462.98 197.13 469.27
  Q 194.17 472.11 191.01 475.05
  Q 176.33 488.73 163.42 503.66
  Q 156.14 512.08 148.75 520.70
  Q 146.81 522.97 145.34 525.43
  Q 144.01 527.67 142.22 529.64
  Q 139.09 533.08 136.28 537.42
  Q 134.29 540.49 131.98 543.31
  Q 131.64 543.72 131.54 544.25
  Q 131.37 545.21 130.48 545.41
  A 1.23 1.23 0.0 0 0 129.74 545.92
  Q 125.69 551.94 121.44 558.29
  Q 119.87 560.63 118.70 563.18
  A 0.95 0.92 6.7 0 1 118.03 563.69
  Q 117.58 563.77 117.37 564.18
  Q 115.45 567.87 113.30 571.14
  Q 108.10 579.03 103.53 587.84
  Q 102.41 589.99 101.08 592.01
  Q 99.79 593.96 98.93 596.03
  Q 98.20 597.79 97.19 599.47
  Q 96.01 601.41 95.38 603.63
  Q 95.31 603.89 95.05 603.83
  Q 94.75 603.76 94.64 604.05
  Q 92.78 609.21 89.98 613.92
  Q 89.38 614.92 89.09 615.93
  C 88.56 617.78 87.20 619.16 86.39 620.91
  Q 81.88 630.69 75.85 645.74
  Q 73.54 651.49 72.48 654.71
  C 71.95 656.32 70.88 657.62 70.89 659.33
  Q 70.90 659.55 70.69 659.65
  Q 70.50 659.75 70.44 659.95
  Q 68.81 664.88 67.15 669.79
  Q 65.96 673.29 64.91 677.08
  Q 63.88 680.81 62.62 684.38
  Q 60.16 691.33 58.66 699.04
  Q 58.57 699.54 58.23 699.93
  Q 57.92 700.29 57.81 700.76
  Q 50.44 731.26 47.45 753.51
  Q 47.36 754.14 47.27 754.74
  Q 46.42 760.11 45.92 766.07
  Q 45.84 766.98 45.61 767.83
  C 45.22 769.24 45.35 771.28 45.20 772.33
  Q 44.06 780.26 44.11 788.14
  Q 44.11 788.36 43.97 788.52
  Q 43.88 788.62 43.87 788.75
  Q 43.82 796.40 44.21 804.45
  Q 44.23 804.73 44.37 804.96
  Q 44.45 805.10 44.46 805.25
  Q 45.09 815.92 44.78 824.15
  Q 44.57 829.59 44.55 834.63
  Q 44.54 840.03 44.41 845.14
  Q 44.17 854.84 44.49 860.88
  Q 45.39 878.08 47.94 894.84
  Q 48.07 895.72 48.50 897.64
  Q 48.82 899.04 48.99 900.46
  Q 49.25 902.61 49.68 904.69
  Q 50.98 911.13 52.07 918.15
  Q 52.59 921.53 53.57 924.73
  Q 54.55 927.89 55.05 931.35
  Q 55.52 934.57 56.64 937.78
  Q 57.72 940.86 58.46 944.29
  Q 59.76 950.32 61.89 956.01
  Q 62.73 958.24 63.34 960.70
  Q 63.95 963.15 64.83 965.52
  Q 66.87 970.93 67.43 972.59
  Q 69.39 978.40 71.04 982.80
  Q 72.52 986.74 73.63 989.17
  Q 75.20 992.61 76.19 995.54
  Q 76.94 997.76 77.87 999.96
  Q 78.89 1002.39 79.48 1004.74
  Q 80.31 1008.03 82.32 1011.23
  Q 83.14 1012.53 83.62 1013.96
  Q 84.13 1015.47 84.56 1016.95
  C 85.06 1018.65 86.15 1019.79 86.66 1021.45
  C 87.46 1024.07 88.70 1026.28 89.86 1028.70
  Q 90.80 1030.67 91.64 1032.63
  Q 92.73 1035.17 94.38 1037.38
  C 95.43 1038.78 95.66 1040.45 96.19 1042.07
  A 1.18 1.18 0.0 0 0 96.96 1042.83
  Q 97.62 1043.04 97.31 1043.66
  Q 96.99 1044.29 97.69 1044.39
  L 101.88 1045.00"
/>
<path stroke="#6b6f6c" vector-effect="non-scaling-stroke" d="
  M 371.7909 660.2301
  A 23.03 16.93 100.0 0 0 392.4628 640.4899
  A 23.03 16.93 100.0 0 0 379.7891 614.8699
  A 23.03 16.93 100.0 0 0 359.1172 634.6101
  A 23.03 16.93 100.0 0 0 371.7909 660.2301"
/>
<path stroke="#6b6f6c" vector-effect="non-scaling-stroke" d="
  M 563.1209 681.8601
  A 23.03 16.93 100.0 0 0 583.7928 662.1199
  A 23.03 16.93 100.0 0 0 571.1191 636.4999
  A 23.03 16.93 100.0 0 0 550.4472 656.2401
  A 23.03 16.93 100.0 0 0 563.1209 681.8601"
/>
<path stroke="#6b6f6c" vector-effect="non-scaling-stroke" d="
  M 408.16 841.04
  Q 439.11 854.56 475.27 854.28
  Q 494.61 854.13 510.19 849.61
  Q 562.53 834.42 584.00 784.35
  Q 584.34 783.57 583.49 783.48
  L 348.53 758.12
  Q 348.04 758.07 348.08 758.56
  C 351.08 795.62 374.33 826.26 408.16 841.04"
/>
</g>
<path fill="#ececde" d="
  M 0.00 0.00
  L 1045.00 0.00
  L 1045.00 1045.00
  L 940.75 1045.00
  Q 942.67 1044.43 944.52 1043.67
  Q 945.37 1043.31 944.45 1043.36
  Q 944.27 1043.37 944.16 1043.26
  Q 943.80 1042.92 943.96 1042.45
  C 944.31 1041.35 944.52 1040.14 945.00 1039.13
  Q 952.86 1022.79 959.88 1006.02
  Q 960.10 1005.48 960.59 1003.71
  Q 960.73 1003.20 961.11 1002.81
  Q 961.65 1002.23 961.77 1001.51
  Q 961.89 1000.75 962.23 1000.07
  Q 963.07 998.42 963.55 996.73
  Q 963.98 995.22 964.66 993.84
  Q 966.35 990.41 967.12 986.60
  Q 967.15 986.44 967.32 986.42
  Q 967.59 986.38 967.68 986.11
  Q 968.81 982.73 970.28 979.52
  Q 970.61 978.80 970.58 977.99
  Q 970.55 977.17 971.00 976.48
  Q 971.61 975.53 971.97 974.43
  Q 978.18 955.07 979.61 949.85
  Q 984.62 931.60 988.69 912.67
  C 988.86 911.85 988.73 910.70 988.99 909.93
  Q 989.54 908.24 989.58 908.01
  Q 994.67 877.54 996.64 846.74
  Q 997.30 836.52 997.29 827.15
  Q 997.29 813.08 996.78 799.70
  Q 996.57 794.01 995.83 788.51
  Q 995.15 783.47 994.72 777.67
  Q 994.13 769.65 992.75 762.25
  Q 992.26 759.61 992.20 757.41
  Q 992.14 754.91 991.74 752.62
  Q 990.67 746.52 989.47 740.29
  Q 989.36 739.74 989.08 739.26
  Q 988.80 738.76 988.83 738.14
  Q 988.88 737.27 988.72 736.42
  Q 987.34 729.20 986.36 722.26
  Q 986.20 721.16 985.66 720.06
  Q 985.14 719.01 984.94 717.85
  Q 983.97 712.36 982.16 707.36
  C 981.74 706.19 981.87 704.98 981.44 703.79
  Q 980.97 702.50 980.74 701.15
  Q 980.37 699.01 979.91 696.87
  Q 979.71 695.97 979.31 695.19
  Q 978.88 694.35 978.70 693.50
  Q 978.44 692.23 977.97 691.04
  Q 976.86 688.26 976.14 685.44
  Q 975.56 683.15 974.73 680.95
  Q 973.89 678.71 973.55 676.38
  C 973.32 674.80 972.03 673.73 971.85 672.10
  Q 971.76 671.21 971.18 670.52
  Q 970.85 670.12 970.86 669.60
  Q 970.86 668.36 970.14 667.34
  Q 969.83 666.90 969.88 666.35
  Q 969.95 665.73 969.58 665.21
  Q 969.16 664.63 968.92 663.89
  Q 967.48 659.43 965.66 654.68
  Q 944.30 598.93 910.41 550.66
  Q 910.12 550.24 910.09 549.73
  Q 910.03 548.77 909.40 547.96
  Q 906.92 544.77 904.92 541.22
  C 904.37 540.25 903.59 539.49 902.80 538.71
  Q 901.90 537.82 901.24 536.67
  Q 898.79 532.35 895.26 529.27
  Q 894.72 528.80 894.56 528.11
  Q 894.28 526.92 893.40 526.04
  C 892.22 524.86 891.45 523.49 890.59 522.08
  A 0.81 0.80 -17.1 0 0 889.85 521.69
  Q 889.48 521.70 889.23 521.48
  Q 888.50 520.84 888.38 520.03
  Q 888.23 519.07 887.35 518.69
  Q 886.88 518.48 886.62 518.03
  Q 885.49 516.06 883.78 514.35
  Q 882.52 513.09 881.63 511.45
  Q 880.04 508.52 877.98 506.79
  Q 874.83 504.15 872.49 500.79
  Q 871.61 499.53 870.23 498.82
  Q 869.78 498.60 869.62 498.14
  Q 869.45 497.62 869.04 497.23
  Q 866.43 494.74 864.17 491.87
  Q 863.32 490.79 862.19 489.87
  Q 860.99 488.89 860.12 487.42
  Q 859.32 486.08 858.13 485.18
  Q 857.06 484.37 856.27 483.31
  Q 855.16 481.81 853.57 481.29
  A 0.07 0.07 0.0 0 1 853.54 481.19
  Q 853.67 481.04 853.64 480.84
  Q 853.60 480.49 853.28 480.21
  Q 847.47 475.07 841.29 469.00
  C 840.86 468.57 840.26 468.39 839.82 467.93
  Q 836.13 464.02 831.77 460.29
  Q 828.69 457.66 825.26 454.49
  Q 821.87 451.36 818.25 448.75
  Q 817.30 448.07 816.57 447.05
  Q 815.90 446.13 814.88 445.46
  Q 810.92 442.88 806.69 439.33
  C 805.59 438.40 804.33 437.92 803.20 436.99
  Q 799.36 433.81 795.21 430.79
  Q 794.03 429.93 792.80 429.19
  Q 791.57 428.45 790.41 427.50
  Q 788.78 426.17 786.93 424.95
  Q 780.52 420.73 774.28 416.61
  Q 771.30 414.64 768.05 412.82
  Q 764.89 411.03 761.80 408.96
  Q 760.24 407.92 758.62 407.22
  Q 756.86 406.46 755.44 405.31
  Q 753.98 404.12 752.20 403.29
  Q 750.39 402.44 748.67 401.45
  Q 744.44 399.01 739.42 396.96
  Q 738.96 396.78 738.70 396.36
  Q 738.56 396.13 738.31 396.09
  Q 737.93 396.03 737.58 395.85
  Q 730.49 392.21 723.39 388.85
  Q 722.23 388.30 720.96 387.88
  Q 719.70 387.45 718.51 386.81
  Q 716.88 385.93 715.04 385.28
  Q 712.80 384.49 710.46 383.35
  Q 703.54 379.97 694.28 376.71
  Q 692.66 376.14 691.06 375.23
  A 0.93 0.92 -37.4 0 0 690.36 375.14
  Q 689.74 375.29 689.62 374.73
  Q 689.51 374.22 688.99 374.17
  Q 687.40 374.04 685.90 373.34
  Q 683.39 372.19 683.02 372.06
  Q 676.38 369.77 669.30 367.58
  Q 669.10 367.52 669.00 367.33
  Q 668.97 367.26 668.93 367.21
  Q 668.77 367.03 668.54 367.01
  Q 665.31 366.74 662.76 365.70
  Q 660.04 364.60 657.27 363.81
  Q 650.53 361.90 643.62 360.06
  Q 642.96 359.88 642.40 359.50
  Q 641.99 359.22 641.49 359.17
  Q 638.94 358.91 636.52 358.12
  Q 634.07 357.32 631.43 356.89
  Q 628.96 356.49 626.78 355.81
  Q 624.48 355.10 622.16 354.61
  Q 601.73 350.28 580.99 347.76
  Q 579.98 347.64 579.03 347.46
  Q 574.71 346.65 570.16 346.46
  C 567.28 346.35 564.56 345.79 561.69 345.70
  Q 558.39 345.60 555.17 345.31
  Q 542.83 344.21 531.01 344.87
  Q 517.97 345.60 504.75 345.30
  Q 500.01 345.19 495.72 345.42
  Q 491.07 345.66 486.74 345.63
  Q 474.91 345.54 463.18 347.23
  Q 454.88 348.43 445.08 349.91
  C 443.35 350.17 441.67 350.08 440.01 350.37
  Q 425.16 352.97 412.50 355.95
  Q 409.99 356.54 408.16 356.92
  Q 406.00 357.37 403.85 357.94
  Q 398.98 359.24 394.28 360.64
  Q 390.33 361.81 385.70 362.96
  Q 381.39 364.03 376.99 365.67
  A 1.45 1.44 -77.7 0 0 376.48 366.00
  Q 375.95 366.54 375.22 366.42
  A 1.74 1.71 37.4 0 0 374.26 366.54
  Q 373.41 366.91 372.60 367.16
  Q 371.82 367.41 370.96 367.85
  Q 369.48 368.63 367.86 369.03
  Q 365.15 369.69 364.68 369.85
  Q 360.07 371.41 355.49 373.04
  Q 354.50 373.40 352.54 374.30
  Q 351.08 374.97 349.55 375.47
  Q 347.26 376.21 345.27 377.09
  Q 341.94 378.57 336.70 380.64
  Q 331.49 382.69 326.59 384.16
  Q 324.59 384.76 320.46 386.91
  C 319.64 387.33 319.56 387.80 318.51 388.04
  Q 318.03 388.14 317.61 388.40
  Q 314.79 390.12 311.56 391.65
  Q 303.81 395.30 294.76 400.00
  Q 293.67 400.56 292.55 400.97
  Q 291.21 401.45 290.38 402.38
  Q 289.28 403.62 287.91 404.34
  Q 282.68 407.11 277.61 410.12
  Q 277.15 410.40 276.58 410.55
  Q 276.28 410.63 276.01 410.80
  Q 266.22 416.67 258.04 421.89
  Q 254.61 424.09 250.79 427.04
  Q 249.35 428.16 247.71 429.07
  Q 246.07 429.98 244.48 431.29
  Q 243.02 432.50 241.44 433.45
  Q 240.04 434.29 238.83 435.30
  Q 238.00 436.00 237.00 436.44
  Q 236.00 436.87 235.20 437.55
  Q 231.05 441.06 226.75 444.33
  Q 226.42 444.59 226.02 444.72
  Q 225.55 444.87 225.15 445.16
  L 221.88 447.60
  Q 221.60 447.81 221.49 448.15
  Q 221.40 448.44 221.13 448.59
  Q 220.68 448.83 220.34 449.20
  Q 219.09 450.55 217.53 451.54
  C 215.99 452.52 215.19 454.10 213.67 455.02
  Q 212.23 455.90 210.98 456.93
  Q 203.70 462.98 197.13 469.27
  Q 194.17 472.11 191.01 475.05
  Q 176.33 488.73 163.42 503.66
  Q 156.14 512.08 148.75 520.70
  Q 146.81 522.97 145.34 525.43
  Q 144.01 527.67 142.22 529.64
  Q 139.09 533.08 136.28 537.42
  Q 134.29 540.49 131.98 543.31
  Q 131.64 543.72 131.54 544.25
  Q 131.37 545.21 130.48 545.41
  A 1.23 1.23 0.0 0 0 129.74 545.92
  Q 125.69 551.94 121.44 558.29
  Q 119.87 560.63 118.70 563.18
  A 0.95 0.92 6.7 0 1 118.03 563.69
  Q 117.58 563.77 117.37 564.18
  Q 115.45 567.87 113.30 571.14
  Q 108.10 579.03 103.53 587.84
  Q 102.41 589.99 101.08 592.01
  Q 99.79 593.96 98.93 596.03
  Q 98.20 597.79 97.19 599.47
  Q 96.01 601.41 95.38 603.63
  Q 95.31 603.89 95.05 603.83
  Q 94.75 603.76 94.64 604.05
  Q 92.78 609.21 89.98 613.92
  Q 89.38 614.92 89.09 615.93
  C 88.56 617.78 87.20 619.16 86.39 620.91
  Q 81.88 630.69 75.85 645.74
  Q 73.54 651.49 72.48 654.71
  C 71.95 656.32 70.88 657.62 70.89 659.33
  Q 70.90 659.55 70.69 659.65
  Q 70.50 659.75 70.44 659.95
  Q 68.81 664.88 67.15 669.79
  Q 65.96 673.29 64.91 677.08
  Q 63.88 680.81 62.62 684.38
  Q 60.16 691.33 58.66 699.04
  Q 58.57 699.54 58.23 699.93
  Q 57.92 700.29 57.81 700.76
  Q 50.44 731.26 47.45 753.51
  Q 47.36 754.14 47.27 754.74
  Q 46.42 760.11 45.92 766.07
  Q 45.84 766.98 45.61 767.83
  C 45.22 769.24 45.35 771.28 45.20 772.33
  Q 44.06 780.26 44.11 788.14
  Q 44.11 788.36 43.97 788.52
  Q 43.88 788.62 43.87 788.75
  Q 43.82 796.40 44.21 804.45
  Q 44.23 804.73 44.37 804.96
  Q 44.45 805.10 44.46 805.25
  Q 45.09 815.92 44.78 824.15
  Q 44.57 829.59 44.55 834.63
  Q 44.54 840.03 44.41 845.14
  Q 44.17 854.84 44.49 860.88
  Q 45.39 878.08 47.94 894.84
  Q 48.07 895.72 48.50 897.64
  Q 48.82 899.04 48.99 900.46
  Q 49.25 902.61 49.68 904.69
  Q 50.98 911.13 52.07 918.15
  Q 52.59 921.53 53.57 924.73
  Q 54.55 927.89 55.05 931.35
  Q 55.52 934.57 56.64 937.78
  Q 57.72 940.86 58.46 944.29
  Q 59.76 950.32 61.89 956.01
  Q 62.73 958.24 63.34 960.70
  Q 63.95 963.15 64.83 965.52
  Q 66.87 970.93 67.43 972.59
  Q 69.39 978.40 71.04 982.80
  Q 72.52 986.74 73.63 989.17
  Q 75.20 992.61 76.19 995.54
  Q 76.94 997.76 77.87 999.96
  Q 78.89 1002.39 79.48 1004.74
  Q 80.31 1008.03 82.32 1011.23
  Q 83.14 1012.53 83.62 1013.96
  Q 84.13 1015.47 84.56 1016.95
  C 85.06 1018.65 86.15 1019.79 86.66 1021.45
  C 87.46 1024.07 88.70 1026.28 89.86 1028.70
  Q 90.80 1030.67 91.64 1032.63
  Q 92.73 1035.17 94.38 1037.38
  C 95.43 1038.78 95.66 1040.45 96.19 1042.07
  A 1.18 1.18 0.0 0 0 96.96 1042.83
  Q 97.62 1043.04 97.31 1043.66
  Q 96.99 1044.29 97.69 1044.39
  L 101.88 1045.00
  L 0.00 1045.00
  L 0.00 0.00
  Z"
/>
<path fill="#d6ddd7" d="
  M 940.75 1045.00
  L 101.88 1045.00
  L 97.69 1044.39
  Q 96.99 1044.29 97.31 1043.66
  Q 97.62 1043.04 96.96 1042.83
  A 1.18 1.18 0.0 0 1 96.19 1042.07
  C 95.66 1040.45 95.43 1038.78 94.38 1037.38
  Q 92.73 1035.17 91.64 1032.63
  Q 90.80 1030.67 89.86 1028.70
  C 88.70 1026.28 87.46 1024.07 86.66 1021.45
  C 86.15 1019.79 85.06 1018.65 84.56 1016.95
  Q 84.13 1015.47 83.62 1013.96
  Q 83.14 1012.53 82.32 1011.23
  Q 80.31 1008.03 79.48 1004.74
  Q 78.89 1002.39 77.87 999.96
  Q 76.94 997.76 76.19 995.54
  Q 75.20 992.61 73.63 989.17
  Q 72.52 986.74 71.04 982.80
  Q 69.39 978.40 67.43 972.59
  Q 66.87 970.93 64.83 965.52
  Q 63.95 963.15 63.34 960.70
  Q 62.73 958.24 61.89 956.01
  Q 59.76 950.32 58.46 944.29
  Q 57.72 940.86 56.64 937.78
  Q 55.52 934.57 55.05 931.35
  Q 54.55 927.89 53.57 924.73
  Q 52.59 921.53 52.07 918.15
  Q 50.98 911.13 49.68 904.69
  Q 49.25 902.61 48.99 900.46
  Q 48.82 899.04 48.50 897.64
  Q 48.07 895.72 47.94 894.84
  Q 45.39 878.08 44.49 860.88
  Q 44.17 854.84 44.41 845.14
  Q 44.54 840.03 44.55 834.63
  Q 44.57 829.59 44.78 824.15
  Q 45.09 815.92 44.46 805.25
  Q 44.45 805.10 44.37 804.96
  Q 44.23 804.73 44.21 804.45
  Q 43.82 796.40 43.87 788.75
  Q 43.88 788.62 43.97 788.52
  Q 44.11 788.36 44.11 788.14
  Q 44.06 780.26 45.20 772.33
  C 45.35 771.28 45.22 769.24 45.61 767.83
  Q 45.84 766.98 45.92 766.07
  Q 46.42 760.11 47.27 754.74
  Q 47.36 754.14 47.45 753.51
  Q 50.44 731.26 57.81 700.76
  Q 57.92 700.29 58.23 699.93
  Q 58.57 699.54 58.66 699.04
  Q 60.16 691.33 62.62 684.38
  Q 63.88 680.81 64.91 677.08
  Q 65.96 673.29 67.15 669.79
  Q 68.81 664.88 70.44 659.95
  Q 70.50 659.75 70.69 659.65
  Q 70.90 659.55 70.89 659.33
  C 70.88 657.62 71.95 656.32 72.48 654.71
  Q 73.54 651.49 75.85 645.74
  Q 81.88 630.69 86.39 620.91
  C 87.20 619.16 88.56 617.78 89.09 615.93
  Q 89.38 614.92 89.98 613.92
  Q 92.78 609.21 94.64 604.05
  Q 94.75 603.76 95.05 603.83
  Q 95.31 603.89 95.38 603.63
  Q 96.01 601.41 97.19 599.47
  Q 98.20 597.79 98.93 596.03
  Q 99.79 593.96 101.08 592.01
  Q 102.41 589.99 103.53 587.84
  Q 108.10 579.03 113.30 571.14
  Q 115.45 567.87 117.37 564.18
  Q 117.58 563.77 118.03 563.69
  A 0.95 0.92 6.7 0 0 118.70 563.18
  Q 119.87 560.63 121.44 558.29
  Q 125.69 551.94 129.74 545.92
  A 1.23 1.23 0.0 0 1 130.48 545.41
  Q 131.37 545.21 131.54 544.25
  Q 131.64 543.72 131.98 543.31
  Q 134.29 540.49 136.28 537.42
  Q 139.09 533.08 142.22 529.64
  Q 144.01 527.67 145.34 525.43
  Q 146.81 522.97 148.75 520.70
  Q 156.14 512.08 163.42 503.66
  Q 176.33 488.73 191.01 475.05
  Q 194.17 472.11 197.13 469.27
  Q 203.70 462.98 210.98 456.93
  Q 212.23 455.90 213.67 455.02
  C 215.19 454.10 215.99 452.52 217.53 451.54
  Q 219.09 450.55 220.34 449.20
  Q 220.68 448.83 221.13 448.59
  Q 221.40 448.44 221.49 448.15
  Q 221.60 447.81 221.88 447.60
  L 225.15 445.16
  Q 225.55 444.87 226.02 444.72
  Q 226.42 444.59 226.75 444.33
  Q 231.05 441.06 235.20 437.55
  Q 236.00 436.87 237.00 436.44
  Q 238.00 436.00 238.83 435.30
  Q 240.04 434.29 241.44 433.45
  Q 243.02 432.50 244.48 431.29
  Q 246.07 429.98 247.71 429.07
  Q 249.35 428.16 250.79 427.04
  Q 254.61 424.09 258.04 421.89
  Q 266.22 416.67 276.01 410.80
  Q 276.28 410.63 276.58 410.55
  Q 277.15 410.40 277.61 410.12
  Q 282.68 407.11 287.91 404.34
  Q 289.28 403.62 290.38 402.38
  Q 291.21 401.45 292.55 400.97
  Q 293.67 400.56 294.76 400.00
  Q 303.81 395.30 311.56 391.65
  Q 314.79 390.12 317.61 388.40
  Q 318.03 388.14 318.51 388.04
  C 319.56 387.80 319.64 387.33 320.46 386.91
  Q 324.59 384.76 326.59 384.16
  Q 331.49 382.69 336.70 380.64
  Q 341.94 378.57 345.27 377.09
  Q 347.26 376.21 349.55 375.47
  Q 351.08 374.97 352.54 374.30
  Q 354.50 373.40 355.49 373.04
  Q 360.07 371.41 364.68 369.85
  Q 365.15 369.69 367.86 369.03
  Q 369.48 368.63 370.96 367.85
  Q 371.82 367.41 372.60 367.16
  Q 373.41 366.91 374.26 366.54
  A 1.74 1.71 37.4 0 1 375.22 366.42
  Q 375.95 366.54 376.48 366.00
  A 1.45 1.44 -77.7 0 1 376.99 365.67
  Q 381.39 364.03 385.70 362.96
  Q 390.33 361.81 394.28 360.64
  Q 398.98 359.24 403.85 357.94
  Q 406.00 357.37 408.16 356.92
  Q 409.99 356.54 412.50 355.95
  Q 425.16 352.97 440.01 350.37
  C 441.67 350.08 443.35 350.17 445.08 349.91
  Q 454.88 348.43 463.18 347.23
  Q 474.91 345.54 486.74 345.63
  Q 491.07 345.66 495.72 345.42
  Q 500.01 345.19 504.75 345.30
  Q 517.97 345.60 531.01 344.87
  Q 542.83 344.21 555.17 345.31
  Q 558.39 345.60 561.69 345.70
  C 564.56 345.79 567.28 346.35 570.16 346.46
  Q 574.71 346.65 579.03 347.46
  Q 579.98 347.64 580.99 347.76
  Q 601.73 350.28 622.16 354.61
  Q 624.48 355.10 626.78 355.81
  Q 628.96 356.49 631.43 356.89
  Q 634.07 357.32 636.52 358.12
  Q 638.94 358.91 641.49 359.17
  Q 641.99 359.22 642.40 359.50
  Q 642.96 359.88 643.62 360.06
  Q 650.53 361.90 657.27 363.81
  Q 660.04 364.60 662.76 365.70
  Q 665.31 366.74 668.54 367.01
  Q 668.77 367.03 668.93 367.21
  Q 668.97 367.26 669.00 367.33
  Q 669.10 367.52 669.30 367.58
  Q 676.38 369.77 683.02 372.06
  Q 683.39 372.19 685.90 373.34
  Q 687.40 374.04 688.99 374.17
  Q 689.51 374.22 689.62 374.73
  Q 689.74 375.29 690.36 375.14
  A 0.93 0.92 -37.4 0 1 691.06 375.23
  Q 692.66 376.14 694.28 376.71
  Q 703.54 379.97 710.46 383.35
  Q 712.80 384.49 715.04 385.28
  Q 716.88 385.93 718.51 386.81
  Q 719.70 387.45 720.96 387.88
  Q 722.23 388.30 723.39 388.85
  Q 730.49 392.21 737.58 395.85
  Q 737.93 396.03 738.31 396.09
  Q 738.56 396.13 738.70 396.36
  Q 738.96 396.78 739.42 396.96
  Q 744.44 399.01 748.67 401.45
  Q 750.39 402.44 752.20 403.29
  Q 753.98 404.12 755.44 405.31
  Q 756.86 406.46 758.62 407.22
  Q 760.24 407.92 761.80 408.96
  Q 764.89 411.03 768.05 412.82
  Q 771.30 414.64 774.28 416.61
  Q 780.52 420.73 786.93 424.95
  Q 788.78 426.17 790.41 427.50
  Q 791.57 428.45 792.80 429.19
  Q 794.03 429.93 795.21 430.79
  Q 799.36 433.81 803.20 436.99
  C 804.33 437.92 805.59 438.40 806.69 439.33
  Q 810.92 442.88 814.88 445.46
  Q 815.90 446.13 816.57 447.05
  Q 817.30 448.07 818.25 448.75
  Q 821.87 451.36 825.26 454.49
  Q 828.69 457.66 831.77 460.29
  Q 836.13 464.02 839.82 467.93
  C 840.26 468.39 840.86 468.57 841.29 469.00
  Q 847.47 475.07 853.28 480.21
  Q 853.60 480.49 853.64 480.84
  Q 853.67 481.04 853.54 481.19
  A 0.07 0.07 0.0 0 0 853.57 481.29
  Q 855.16 481.81 856.27 483.31
  Q 857.06 484.37 858.13 485.18
  Q 859.32 486.08 860.12 487.42
  Q 860.99 488.89 862.19 489.87
  Q 863.32 490.79 864.17 491.87
  Q 866.43 494.74 869.04 497.23
  Q 869.45 497.62 869.62 498.14
  Q 869.78 498.60 870.23 498.82
  Q 871.61 499.53 872.49 500.79
  Q 874.83 504.15 877.98 506.79
  Q 880.04 508.52 881.63 511.45
  Q 882.52 513.09 883.78 514.35
  Q 885.49 516.06 886.62 518.03
  Q 886.88 518.48 887.35 518.69
  Q 888.23 519.07 888.38 520.03
  Q 888.50 520.84 889.23 521.48
  Q 889.48 521.70 889.85 521.69
  A 0.81 0.80 -17.1 0 1 890.59 522.08
  C 891.45 523.49 892.22 524.86 893.40 526.04
  Q 894.28 526.92 894.56 528.11
  Q 894.72 528.80 895.26 529.27
  Q 898.79 532.35 901.24 536.67
  Q 901.90 537.82 902.80 538.71
  C 903.59 539.49 904.37 540.25 904.92 541.22
  Q 906.92 544.77 909.40 547.96
  Q 910.03 548.77 910.09 549.73
  Q 910.12 550.24 910.41 550.66
  Q 944.30 598.93 965.66 654.68
  Q 967.48 659.43 968.92 663.89
  Q 969.16 664.63 969.58 665.21
  Q 969.95 665.73 969.88 666.35
  Q 969.83 666.90 970.14 667.34
  Q 970.86 668.36 970.86 669.60
  Q 970.85 670.12 971.18 670.52
  Q 971.76 671.21 971.85 672.10
  C 972.03 673.73 973.32 674.80 973.55 676.38
  Q 973.89 678.71 974.73 680.95
  Q 975.56 683.15 976.14 685.44
  Q 976.86 688.26 977.97 691.04
  Q 978.44 692.23 978.70 693.50
  Q 978.88 694.35 979.31 695.19
  Q 979.71 695.97 979.91 696.87
  Q 980.37 699.01 980.74 701.15
  Q 980.97 702.50 981.44 703.79
  C 981.87 704.98 981.74 706.19 982.16 707.36
  Q 983.97 712.36 984.94 717.85
  Q 985.14 719.01 985.66 720.06
  Q 986.20 721.16 986.36 722.26
  Q 987.34 729.20 988.72 736.42
  Q 988.88 737.27 988.83 738.14
  Q 988.80 738.76 989.08 739.26
  Q 989.36 739.74 989.47 740.29
  Q 990.67 746.52 991.74 752.62
  Q 992.14 754.91 992.20 757.41
  Q 992.26 759.61 992.75 762.25
  Q 994.13 769.65 994.72 777.67
  Q 995.15 783.47 995.83 788.51
  Q 996.57 794.01 996.78 799.70
  Q 997.29 813.08 997.29 827.15
  Q 997.30 836.52 996.64 846.74
  Q 994.67 877.54 989.58 908.01
  Q 989.54 908.24 988.99 909.93
  C 988.73 910.70 988.86 911.85 988.69 912.67
  Q 984.62 931.60 979.61 949.85
  Q 978.18 955.07 971.97 974.43
  Q 971.61 975.53 971.00 976.48
  Q 970.55 977.17 970.58 977.99
  Q 970.61 978.80 970.28 979.52
  Q 968.81 982.73 967.68 986.11
  Q 967.59 986.38 967.32 986.42
  Q 967.15 986.44 967.12 986.60
  Q 966.35 990.41 964.66 993.84
  Q 963.98 995.22 963.55 996.73
  Q 963.07 998.42 962.23 1000.07
  Q 961.89 1000.75 961.77 1001.51
  Q 961.65 1002.23 961.11 1002.81
  Q 960.73 1003.20 960.59 1003.71
  Q 960.10 1005.48 959.88 1006.02
  Q 952.86 1022.79 945.00 1039.13
  C 944.52 1040.14 944.31 1041.35 943.96 1042.45
  Q 943.80 1042.92 944.16 1043.26
  Q 944.27 1043.37 944.45 1043.36
  Q 945.37 1043.31 944.52 1043.67
  Q 942.67 1044.43 940.75 1045.00
  Z
  M 371.7909 660.2301
  A 23.03 16.93 100.0 0 0 392.4628 640.4899
  A 23.03 16.93 100.0 0 0 379.7891 614.8699
  A 23.03 16.93 100.0 0 0 359.1172 634.6101
  A 23.03 16.93 100.0 0 0 371.7909 660.2301
  Z
  M 563.1209 681.8601
  A 23.03 16.93 100.0 0 0 583.7928 662.1199
  A 23.03 16.93 100.0 0 0 571.1191 636.4999
  A 23.03 16.93 100.0 0 0 550.4472 656.2401
  A 23.03 16.93 100.0 0 0 563.1209 681.8601
  Z
  M 408.16 841.04
  Q 439.11 854.56 475.27 854.28
  Q 494.61 854.13 510.19 849.61
  Q 562.53 834.42 584.00 784.35
  Q 584.34 783.57 583.49 783.48
  L 348.53 758.12
  Q 348.04 758.07 348.08 758.56
  C 351.08 795.62 374.33 826.26 408.16 841.04
  Z"
/>
<ellipse fill="#000000" cx="0.00" cy="0.00" transform="translate(375.79,637.55) rotate(100.0)" rx="23.03" ry="16.93"/>
<ellipse fill="#000000" cx="0.00" cy="0.00" transform="translate(567.12,659.18) rotate(100.0)" rx="23.03" ry="16.93"/>
<path fill="#000000" d="
  M 408.16 841.04
  C 374.33 826.26 351.08 795.62 348.08 758.56
  Q 348.04 758.07 348.53 758.12
  L 583.49 783.48
  Q 584.34 783.57 584.00 784.35
  Q 562.53 834.42 510.19 849.61
  Q 494.61 854.13 475.27 854.28
  Q 439.11 854.56 408.16 841.04
  Z"
/>
</svg>
